<svg xmlns="http://www.w3.org/2000/svg" width="12" height="8" fill="none" viewBox="0 0 12 8"><path fill="#fff" d="M5.538 1.29c0 .093 0 .093-.048.143l-.063.052-.067.056-.113.09c-.39.313-.79.826-.874 1.316-.016.174-.015.323.097.467.11.12.237.155.4.172.313-.01.594-.147.862-.289l.077-.04a4 4 0 0 0 .655-.44l.051-.041.098-.083c.078-.064.133-.105.237-.107.744.087 1.497.737 2.088 1.146l.26.178.052.035q.15.103.306.2c.192.122.378.243.438.467a.56.56 0 0 1-.088.412.63.63 0 0 1-.432.193.83.83 0 0 1-.52-.16l-.638-.413-.76-.495-.193-.128-.057-.039-.047-.033a.3.3 0 0 0-.168-.022c-.063.038-.072.066-.091.135.047.197.396.343.568.452l.268.171.053.034q.239.154.472.313.282.19.575.366l-.022.1-.013.056a.4.4 0 0 1-.111.194.63.63 0 0 1-.388.07 2 2 0 0 1-.389-.2l-.061-.038a21 21 0 0 1-.613-.39l-.224-.144L7.043 5c-.169-.108-.169-.108-.365-.138-.05.021-.05.021-.073.07-.01.069-.01.069 0 .14.04.047.04.047.1.082l.074.047.093.058.06.036.342.21q.23.14.456.288l.209.134.123.079a.6.6 0 0 1-.216.385c-.166.077-.316.062-.488.012a2 2 0 0 1-.335-.197l-.054-.037q-.143-.097-.283-.196l-.056-.039-.104-.074c-.093-.065-.166-.11-.285-.11-.076.038-.076.038-.092.101-.005.071.005.095.044.155a.5.5 0 0 0 .094.067l.058.037.062.039q.29.185.563.394c-.024.135-.078.2-.192.284-.19.107-.385.118-.6.104l-.055-.003a2 2 0 0 1-.27-.035l.01-.095.007-.053q.008-.07.02-.139a2 2 0 0 0-.374-1.478 2.2 2.2 0 0 0-1.423-.812c-.485-.057-1.04.048-1.434.335l-.108.09c-.047.028-.047.028-.096.027-.117-.055-.19-.181-.267-.28l-.031-.04c-.312-.4-.312-.4-.357-.543.025-.133.11-.24.188-.35l.131-.192.21-.314A176 176 0 0 1 3.03 1.99l.263-.397.051-.077.042-.064c.04-.046.04-.046.086-.066a.6.6 0 0 1 .177.019c.383.071.761-.027 1.134-.113.514-.118.514-.118.755-.002"/><path fill="#fff" d="M4.944 4.978c.36.3.603.691.648 1.152.031.49-.095.935-.435 1.31-.313.322-.709.533-1.17.559-.526.015-.993-.109-1.387-.455a1.68 1.68 0 0 1-.54-1.186 1.76 1.76 0 0 1 .541-1.29c.637-.587 1.657-.613 2.343-.09m-.421.653-.05.045-.052.048-.05.046a4 4 0 0 0-.221.227 6 6 0 0 1-.367.365l-.139.132a4 4 0 0 1-.367-.343c-.083-.064-.135-.075-.24-.077-.062.033-.062.033-.096.093-.014.067-.014.067 0 .14.04.054.079.095.128.141l.252.24.082.078.038.037c.072.067.125.111.228.111.045-.02.045-.02.083-.06l.05-.045.493-.47c.199-.191.199-.191.385-.393.032-.035.032-.035.104-.097.056-.052.056-.052.063-.127-.016-.084-.038-.112-.11-.161-.1-.012-.142.004-.214.07m2.81-4.411.172.064.076.029c.309.108.706.07 1.014-.023A148 148 0 0 1 9.82 3.126l.12.18.087.13.047.07.044.063c.031.055.031.055.031.125-.054.052-.054.052-.125.108l-.071.056c-.11.072-.11.072-.192.07a1.3 1.3 0 0 1-.188-.122l-.111-.078-.057-.041q-.128-.09-.258-.177l-.103-.07-.053-.035-.114-.078c-.988-.75-.988-.75-2.15-1.034a1.2 1.2 0 0 0-.373.234 6 6 0 0 1-.727.493c-.218.128-.472.255-.732.26l-.056.001a.23.23 0 0 1-.15-.077c-.062-.234.069-.48.186-.677.186-.282.414-.558.68-.773q.064-.052.126-.105c.471-.402 1.04-.683 1.653-.43M2.19.139c.137.032.255.118.371.19l.078.048.357.221c.275.17.275.17.333.225.023.155-.037.24-.124.363l-.081.119-.043.062q-.105.155-.207.31L2.14 2.785a211 211 0 0 1-.736 1.107l-.04.06-.036.054-.031.047c-.031.039-.031.039-.104.085-.153.001-.269-.09-.391-.169l-.684-.427-.051-.032c-.039-.025-.039-.025-.063-.048-.019-.152.03-.233.114-.355l.036-.055.193-.287.157-.233a36 36 0 0 0 .38-.57l.209-.317.042-.064.615-.927.046-.07.086-.134.112-.165.03-.046c.051-.07.078-.093.167-.101M9.907.006a.25.25 0 0 1 .077.089l.043.065.05.08.211.32a64 64 0 0 0 .503.763l.737 1.11.045.068.086.13q.09.138.186.275l.032.045.081.114a.33.33 0 0 1 .036.232c-.031.042-.031.042-.08.075l-.06.04-.078.049-.05.03q-.144.09-.291.178-.117.069-.232.142l-.052.033-.097.062c-.094.058-.161.088-.273.068-.103-.07-.163-.187-.228-.289l-.078-.12-.041-.064-.208-.316-.087-.13-.043-.066-.127-.191-.777-1.171L9.11 1.5a12 12 0 0 0-.216-.317L8.85 1.12l-.085-.118C8.689.893 8.643.817 8.669.683a.9.9 0 0 1 .22-.171l.073-.043.077-.046.158-.093.078-.047q.098-.057.192-.118L9.52.13l.094-.06a.38.38 0 0 1 .293-.065"/></svg>