<svg xmlns="http://www.w3.org/2000/svg" width="8" height="10" fill="none" viewBox="0 0 8 10"><path fill="url(#a)" d="M6.058 3.36c.043.45.072 1.246-.193 1.584 0 0 .125-.874-.996-1.97-.451-.442-.555-1.043-.398-1.493a1.7 1.7 0 0 1 .395-.613.132.132 0 0 0-.101-.224c-.73.032-1.911.235-2.413 1.495-.22.553-.237 1.125-.132 1.706.066.372.303 1.197-.237 1.298-.385.073-.571-.233-.655-.454a.13.13 0 0 0-.22-.041C.457 5.388.4 6.26.536 7.01c.26 1.45 1.73 2.507 3.19 2.507C5.55 9.518 7 8.474 7.378 6.586c.151-.763.074-2.272-1.101-3.337-.088-.08-.23-.009-.219.111"/><path fill="url(#b)" d="M3.032 5.418c.762-.9.42-1.927.234-2.336-.025-.054.042-.105.094-.071.328.204 1 .686 1.312 1.363.423.916.393 1.364.142 1.912-.15.33.024.4.112.412.086.012.165-.04.227-.094.181-.16.31-.362.373-.585.013-.048.08-.06.112-.021.234.297.356.775.362 1.112C6.018 8.154 5.079 9 3.943 9 2.51 9 1.468 7.546 2.29 6.331c.24-.353.464-.585.742-.913"/><defs><radialGradient id="a" cx="0" cy="0" r="1" gradientTransform="matrix(5.22052 -.02266 .03718 8.56584 4.087 9.541)" gradientUnits="userSpaceOnUse"><stop offset=".314" stop-color="#ff9800"/><stop offset=".662" stop-color="#ff6d00"/><stop offset=".972" stop-color="#c20632"/></radialGradient><radialGradient id="b" cx="0" cy="0" r="1" gradientTransform="rotate(89.37 .101 3.764)scale(5.6801 4.65706)" gradientUnits="userSpaceOnUse"><stop offset=".214" stop-color="#fff176"/><stop offset=".328" stop-color="#fff27d"/><stop offset=".487" stop-color="#fff48f"/><stop offset=".672" stop-color="#fff7ad"/><stop offset=".793" stop-color="#fff9c4"/><stop offset=".822" stop-color="#fff8bd" stop-opacity=".804"/><stop offset=".863" stop-color="#fff6ab" stop-opacity=".529"/><stop offset=".91" stop-color="#fff38d" stop-opacity=".209"/><stop offset=".941" stop-color="#fff176" stop-opacity="0"/></radialGradient></defs></svg>